<?xml version="1.0" standalone="no"?>
<!DOCTYPE svg PUBLIC "-//W3C//DTD SVG 20010904//EN"
 "http://www.w3.org/TR/2001/REC-SVG-20010904/DTD/svg10.dtd">
<svg version="1.0" xmlns="http://www.w3.org/2000/svg"
 width="84.000000pt" height="84.000000pt" viewBox="0 0 84.000000 84.000000"
 preserveAspectRatio="xMidYMid meet">
<metadata>
Created by potrace 1.14, written by Peter Selinger 2001-2017
</metadata>
<g transform="translate(0.000000,84.000000) scale(0.100000,-0.100000)"
fill="#000000" stroke="none">
<path d="M196 704 c-24 -23 -24 -535 0 -558 23 -24 415 -24 438 0 25 24 21
115 -5 145 -19 22 -30 24 -127 29 l-107 5 -5 188 c-4 152 -8 190 -20 197 -26
17 -156 12 -174 -6z m144 -54 c0 -11 -6 -20 -12 -20 -10 0 -10 -2 0 -9 10 -6
13 -35 11 -110 -1 -87 -4 -101 -18 -99 -9 2 -15 -3 -13 -10 1 -7 -5 -15 -13
-18 -8 -3 -12 -11 -8 -18 4 -6 -1 -4 -12 4 -10 8 -20 14 -22 13 -1 -2 -9 -3
-15 -3 -9 0 -8 4 2 10 10 6 11 10 3 10 -10 0 -13 34 -13 135 l0 135 55 0 c48
0 55 -2 55 -20z m-16 -275 c-4 -8 -2 -15 3 -15 5 0 10 -16 11 -35 2 -23 -2
-35 -10 -35 -9 0 -10 -3 -2 -8 18 -12 12 -76 -8 -80 -9 -2 -18 4 -21 13 -4 12
-5 12 -3 -2 0 -9 12 -20 26 -24 21 -7 19 -8 -10 -6 -29 2 -35 6 -34 24 1 13
-3 20 -7 17 -5 -3 -7 -10 -4 -15 4 -5 1 -9 -5 -9 -6 0 -8 -4 -5 -10 3 -6 1
-10 -4 -10 -6 0 -12 6 -12 13 -1 6 -2 19 -3 27 0 8 6 22 14 30 9 8 10 11 3 6
-8 -5 -15 -2 -19 9 -5 12 -1 21 12 28 17 10 17 11 -1 18 -19 7 -19 8 2 8 12 1
24 -5 27 -11 5 -10 7 -10 12 0 3 6 11 9 16 6 7 -4 8 -2 4 5 -4 6 -13 11 -19
10 -26 -3 -37 2 -47 24 -10 20 -10 20 3 5 19 -24 29 -23 55 7 25 28 34 32 26
10z m111 -116 c-4 -5 1 -9 9 -9 8 0 18 5 21 10 4 6 29 9 56 8 45 -3 49 -5 44
-23 -4 -11 -7 -27 -8 -36 -1 -10 -8 -14 -19 -11 -10 2 -18 -1 -18 -7 0 -6 -4
-11 -10 -11 -16 0 -7 24 15 38 19 13 19 13 -2 9 -13 -3 -23 -1 -23 4 0 5 -4 9
-9 9 -6 0 -8 -9 -6 -20 2 -11 0 -20 -6 -20 -8 0 -13 22 -10 42 0 4 -6 5 -14 1
-12 -4 -13 -8 -4 -19 10 -12 8 -13 -7 -8 -16 5 -16 3 3 -14 l22 -19 -49 -2
c-28 0 -50 4 -50 9 0 6 4 10 8 10 4 0 8 9 9 20 1 11 -2 20 -8 20 -5 0 -9 6 -9
13 0 7 15 13 35 14 20 1 33 -3 30 -8z m151 -77 c-11 -10 -15 4 -8 28 l7 25 3
-23 c2 -13 1 -26 -2 -30z"/>
<path d="M290 620 c0 -5 5 -10 10 -10 6 0 10 5 10 10 0 6 -4 10 -10 10 -5 0
-10 -4 -10 -10z"/>
<path d="M305 340 c3 -5 8 -10 11 -10 2 0 4 5 4 10 0 6 -5 10 -11 10 -5 0 -7
-4 -4 -10z"/>
</g>
</svg>
